<svg width="200" height="200" viewBox="0 0 200 200" fill="none" xmlns="http://www.w3.org/2000/svg">
<g clip-path="url(#clip0_1_2)">
<path d="M156 0H44C19.6995 0 0 19.6995 0 44V156C0 180.301 19.6995 200 44 200H156C180.301 200 200 180.301 200 156V44C200 19.6995 180.301 0 156 0Z" fill="url(#paint0_linear_1_2)"/>
<path d="M100 158C132.033 158 158 132.033 158 100C158 67.9675 132.033 42 100 42C67.9675 42 42 67.9675 42 100C42 132.033 67.9675 158 100 158Z" stroke="white" stroke-width="13.2"/>
<path d="M100 158C132.033 158 158 132.033 158 100C158 67.9675 132.033 42 100 42C67.9675 42 42 67.9675 42 100C42 132.033 67.9675 158 100 158Z" stroke="#DBDBDB" stroke-width="2" stroke-linecap="round" stroke-dasharray="4 5.2"/>
<path d="M100 55.2C107.29 55.2 113.2 49.2902 113.2 42C113.2 34.7098 107.29 28.8 100 28.8C92.7098 28.8 86.8 34.7098 86.8 42C86.8 49.2902 92.7098 55.2 100 55.2Z" fill="#10B981" stroke="#EAF6F1" stroke-width="2.2"/>
<path d="M141 72.2C148.29 72.2 154.2 66.2902 154.2 59C154.2 51.7098 148.29 45.8 141 45.8C133.71 45.8 127.8 51.7098 127.8 59C127.8 66.2902 133.71 72.2 141 72.2Z" fill="#A855F7" stroke="#F4EAFD" stroke-width="2.2"/>
<path d="M158 113.2C165.29 113.2 171.2 107.29 171.2 100C171.2 92.7098 165.29 86.8 158 86.8C150.71 86.8 144.8 92.7098 144.8 100C144.8 107.29 150.71 113.2 158 113.2Z" fill="#F43F5E" stroke="#FDEAEE" stroke-width="2.2"/>
<path d="M141 154.2C148.29 154.2 154.2 148.29 154.2 141C154.2 133.71 148.29 127.8 141 127.8C133.71 127.8 127.8 133.71 127.8 141C127.8 148.29 133.71 154.2 141 154.2Z" fill="#F59E0B" stroke="#FEF4E2" stroke-width="2.2"/>
<path d="M100 171.2C107.29 171.2 113.2 165.29 113.2 158C113.2 150.71 107.29 144.8 100 144.8C92.7098 144.8 86.8 150.71 86.8 158C86.8 165.29 92.7098 171.2 100 171.2Z" fill="#06B6D4" stroke="#E4F8FC" stroke-width="2.2"/>
<path d="M59 154.2C66.2902 154.2 72.2 148.29 72.2 141C72.2 133.71 66.2902 127.8 59 127.8C51.7098 127.8 45.8 133.71 45.8 141C45.8 148.29 51.7098 154.2 59 154.2Z" fill="#F97316" stroke="#FEEFE2" stroke-width="2.2"/>
<path d="M42 113.2C49.2902 113.2 55.2 107.29 55.2 100C55.2 92.7098 49.2902 86.8 42 86.8C34.7098 86.8 28.8 92.7098 28.8 100C28.8 107.29 34.7098 113.2 42 113.2Z" fill="#EC4899" stroke="#FDEAF3" stroke-width="2.2"/>
<path d="M59 72.2C66.2902 72.2 72.2 66.2902 72.2 59C72.2 51.7098 66.2902 45.8 59 45.8C51.7098 45.8 45.8 51.7098 45.8 59C45.8 66.2902 51.7098 72.2 59 72.2Z" fill="#84CC16" stroke="#F1FAE0" stroke-width="2.2"/>
<path d="M100 122C112.15 122 122 112.15 122 100C122 87.8497 112.15 78 100 78C87.8497 78 78 87.8497 78 100C78 112.15 87.8497 122 100 122Z" fill="white"/>
<path d="M100 107.2C103.976 107.2 107.2 103.976 107.2 100C107.2 96.0235 103.976 92.8 100 92.8C96.0235 92.8 92.8 96.0235 92.8 100C92.8 103.976 96.0235 107.2 100 107.2Z" fill="#58595C"/>
</g>
<defs>
<linearGradient id="paint0_linear_1_2" x1="0" y1="0" x2="200" y2="200" gradientUnits="userSpaceOnUse">
<stop stop-color="#5D5D5D"/>
<stop offset="1" stop-color="#39415E"/>
</linearGradient>
<clipPath id="clip0_1_2">
<rect width="200" height="200" fill="white"/>
</clipPath>
</defs>
</svg>
